<svg width="30" height="30" viewBox="0 0 30 30" fill="none" xmlns="http://www.w3.org/2000/svg">
<g id="bathtub 1">
<path id="Vector" d="M18.237 10.6559C19.14 10.6559 19.872 11.3909 19.872 12.2969C19.872 13.2029 19.14 13.9379 18.237 13.9379C17.334 13.9379 16.602 13.2029 16.602 12.2969C16.602 11.3909 17.334 10.6559 18.237 10.6559ZM10.956 10.1729C10.956 9.08692 11.838 8.20192 12.921 8.20192C14.004 8.20192 14.886 9.08692 14.886 10.1729C14.886 11.2589 14.004 12.1439 12.921 12.1439C11.838 12.1439 10.956 11.2589 10.956 10.1729ZM11.616 10.1729C11.616 10.8959 12.201 11.4839 12.921 11.4839C13.641 11.4839 14.226 10.8959 14.226 10.1729C14.226 9.44992 13.641 8.86192 12.921 8.86192C12.201 8.86192 11.616 9.44992 11.616 10.1729ZM13.059 5.16892C13.059 3.78292 14.184 2.65492 15.57 2.65492C16.956 2.65492 18.081 3.78292 18.081 5.16892C18.081 6.55492 16.956 7.68292 15.57 7.68292C14.184 7.68292 13.059 6.55492 13.059 5.16892ZM13.746 5.16892C13.746 6.17692 14.562 6.99592 15.567 6.99592C16.572 6.99592 17.388 6.17692 17.388 5.16892C17.388 4.16092 16.572 3.34192 15.567 3.34192C14.565 3.34192 13.746 4.16092 13.746 5.16892ZM21.987 26.0999C21.582 26.1299 21.051 26.1719 21.222 26.7839C21.381 27.3389 21.582 27.9689 22.299 28.0409C22.809 28.0949 23.136 27.7559 23.043 27.2069C22.953 26.6909 22.803 26.0399 21.987 26.0999ZM1.875 6.31492C1.875 3.89092 3.84 1.91992 6.258 1.91992C8.676 1.91992 10.641 3.89092 10.641 6.31492C10.641 8.73892 8.673 10.7099 6.258 10.7099C3.843 10.7099 1.875 8.73892 1.875 6.31492ZM2.664 6.31492C2.664 8.30092 4.275 9.91792 6.255 9.91792C8.235 9.91792 9.846 8.30392 9.846 6.31492C9.846 4.32592 8.235 2.71492 6.255 2.71492C4.275 2.71492 2.664 4.33192 2.664 6.31492ZM24.897 16.6169C24.507 16.7729 24.111 16.9109 23.715 17.0489C17.694 19.1639 11.505 19.4039 5.241 18.6719C4.488 18.5819 3.612 18.3239 4.011 19.5809C4.89 22.3349 6.924 25.6469 11.061 25.3679C12.315 25.2839 13.584 25.3559 14.844 25.3559C16.104 25.3559 17.367 25.3589 18.627 25.3559C23.49 25.3469 26.247 22.9319 26.877 18.1349C27.18 15.8459 27.057 15.7529 24.897 16.6169ZM27.969 12.7649C27.537 11.9819 26.847 12.3389 26.241 12.6539C19.158 16.3349 11.646 16.5629 3.966 15.4499C3.195 15.3359 2.28 14.9459 2.118 16.1159C1.959 17.2469 3.006 17.2349 3.726 17.3669C6.153 17.8109 8.613 17.8769 10.527 17.9729C16.653 17.9459 22.05 17.0459 27.054 14.4059C27.711 14.0609 28.455 13.6499 27.969 12.7649ZM8.625 26.2199C7.878 26.0639 7.758 26.7509 7.629 27.2279C7.494 27.7289 7.896 28.0499 8.349 28.0769C9.075 28.1189 9.345 27.3749 9.477 26.8199C9.63 26.1959 8.946 26.2889 8.625 26.2199Z" fill="#F15A59"/>
</g>
</svg>
