<svg width="30" height="30" viewBox="0 0 30 30" fill="none" xmlns="http://www.w3.org/2000/svg">
<g id="bed 1">
<path id="Vector" d="M1.875 8.16009C1.875 8.09409 1.875 8.02809 1.878 7.96209C1.935 7.10109 2.748 6.57909 3.435 6.97209C3.906 7.24209 4.032 7.71609 4.032 8.27109C4.029 10.7971 4.029 13.3231 4.029 15.8491V16.3081H28.068V23.1601H25.911V18.6061H4.026V23.1631H1.875V8.16009ZM11.199 10.3471H11.58C13.704 10.3561 15.828 10.3651 17.952 10.3681C20.754 10.3711 23.556 10.3651 26.361 10.3711C27.447 10.3741 28.125 11.1421 28.125 12.3541V15.0781H11.199V10.3471ZM5.286 12.0271C5.286 11.5561 5.481 11.1811 5.787 10.8781C6.141 10.5271 6.561 10.3711 7.029 10.3711H10.299V15.0841H5.286C5.286 14.0491 5.283 13.0381 5.286 12.0271Z" fill="#F15A59"/>
</g>
</svg>
