<svg width="41" height="40" viewBox="0 0 41 40" fill="none" xmlns="http://www.w3.org/2000/svg">
<g id="location 1">
<path id="Vector" d="M20.8761 0C25.8961 0 29.9641 4.072 29.9641 9.092C29.9641 11.512 26.8401 19.088 20.5921 31.82L19.4201 29.224C14.3281 17.884 11.7841 11.176 11.7841 9.092C11.7841 4.072 15.8561 0 20.8761 0ZM20.5921 4.544C18.0801 4.544 16.0441 6.58 16.0441 9.092C16.0441 11.6 18.0801 13.636 20.5921 13.636C23.1001 13.636 25.1361 11.6 25.1361 9.092C25.1361 6.58 23.1001 4.544 20.5921 4.544Z" fill="#FFA6A6"/>
<path id="Vector_2" opacity="0.4" d="M38.232 32.2201C38.232 38.3241 27.248 39.2361 20.7 39.2361C14.152 39.2361 3.16797 38.3241 3.16797 32.2201C3.16797 27.6681 9.29197 26.0041 15.12 25.4561L16.112 28.9241C10.632 29.4001 6.67197 30.6881 6.67197 32.2201C6.67197 34.1601 12.952 35.7281 20.7 35.7281C28.448 35.7281 34.724 34.1601 34.724 32.2201C34.724 30.6881 30.772 29.4001 25.288 28.9241L26.28 25.4561C32.108 26.0041 38.232 27.6681 38.232 32.2201Z" fill="#FFA6A6"/>
</g>
</svg>
