<svg width="41" height="40" viewBox="0 0 41 40" fill="none" xmlns="http://www.w3.org/2000/svg">
<g id="ui-call 1" clip-path="url(#clip0_703_21561)">
<path id="Vector" d="M27.04 39.9721C25.496 40.0001 23.456 38.6961 22.056 37.4881C18.408 34.3481 15.956 30.3041 13.64 26.1801C10.976 21.4321 8.53196 16.5761 7.15596 11.2681C6.57596 9.03207 6.23596 6.76407 6.82796 4.47207C7.27996 2.72007 8.27996 1.50807 10.192 1.17607C11.976 0.864066 13.732 0.420066 15.508 0.0640657C16.64 -0.163934 17.356 0.208066 17.792 1.28007C18.932 4.06407 20.052 6.85607 21.152 9.65207C21.584 10.7441 21.344 11.4761 20.38 12.1401C19.508 12.7401 18.568 13.2561 17.736 13.9081C17.436 14.1441 17.12 14.7161 17.204 15.0361C18.128 18.7121 19.864 21.9761 22.336 24.8521C22.716 25.2921 23.1 25.4041 23.672 25.1241C24.588 24.6721 25.548 24.3041 26.504 23.9281C27.664 23.4721 28.404 23.6761 29.08 24.6721C30.732 27.1081 32.372 29.5521 33.996 32.0081C34.752 33.1521 34.644 33.9401 33.636 34.9081C32.332 36.1641 32.116 36.6161 27.04 39.9721Z" fill="#FFA6A6"/>
</g>
<defs>
<clipPath id="clip0_703_21561">
<rect width="40" height="40" fill="white" transform="translate(0.5)"/>
</clipPath>
</defs>
</svg>
