<svg width="30" height="30" viewBox="0 0 30 30" fill="none" xmlns="http://www.w3.org/2000/svg">
<g id="ruler-alt-1 1" clip-path="url(#clip0_131_2708)">
<path id="Vector" d="M30 22.6771H7.242C7.242 21.3691 7.239 20.0611 7.239 18.7501C7.239 16.6561 7.236 14.5621 7.236 12.4681C7.236 10.1761 7.239 7.88111 7.239 5.58911C7.239 3.94211 7.242 2.29811 7.239 0.654107C7.239 0.564107 7.221 0.477107 7.209 0.360107H0V29.6371H30V22.6771ZM5.763 19.8811H4.35V21.2821H5.754V22.6621C5.631 22.6621 5.529 22.6621 5.427 22.6621C4.671 22.6621 3.918 22.6591 3.162 22.6681C3.066 22.6711 2.889 22.7521 2.886 22.8031C2.865 23.2171 2.874 23.6341 2.874 24.0781H5.754V25.4641H4.35V26.8681H5.76V28.2421H5.412C4.224 28.2421 3.033 28.2421 1.842 28.2421C1.446 28.2421 1.446 28.2421 1.446 27.8491C1.449 24.1201 1.452 20.3881 1.452 16.6561C1.452 11.8801 1.452 7.10111 1.452 2.32211V1.79711H5.757V3.17411H4.356V4.56611H5.76V5.94011H2.895V7.36211H5.748V8.74511H4.35V10.1311H5.754V11.5111H5.361C4.617 11.5111 3.87 11.5051 3.126 11.5171C3.042 11.5171 2.892 11.6041 2.889 11.6581C2.871 12.0721 2.88 12.4891 2.88 12.9361H5.754V14.3281H4.359V15.7141H5.754V17.0851C5.586 17.0851 5.442 17.0851 5.298 17.0851C4.584 17.0821 3.87 17.0791 3.156 17.0791C3.024 17.0791 2.874 17.0551 2.877 17.2591C2.88 17.6581 2.877 18.0541 2.877 18.5101H5.763V19.8811ZM28.503 28.2361H7.224C7.233 27.8071 7.236 27.3751 7.239 26.9461C7.239 25.9831 7.239 25.0231 7.239 24.0601H8.292V25.4401H9.744V24.0871H11.178V26.8591C11.643 26.8591 12.081 26.8681 12.519 26.8471C12.57 26.8441 12.651 26.6701 12.654 26.5771C12.663 25.8391 12.657 25.1011 12.66 24.3631C12.66 24.2761 12.669 24.1861 12.675 24.0841H14.079V25.4401H15.525V24.0841H16.959V26.8381H18.426V24.0841H19.854V25.4371H21.303V24.0871H22.737V26.8381H24.201V24.0871H25.647V25.4431H27.093V24.0811H28.503V28.2361Z" fill="#F15A59"/>
</g>
<defs>
<clipPath id="clip0_131_2708">
<rect width="30" height="30" fill="white"/>
</clipPath>
</defs>
</svg>
